<?xml version="1.0" encoding="UTF-8" standalone="no"?>
<svg
   width="36"
   height="36"
   id="svg4428"
   version="1.1"
   xmlns="http://www.w3.org/2000/svg"
   xmlns:svg="http://www.w3.org/2000/svg">
  <g
     id="layer1"
     transform="matrix(1.7849585,0,0,1.7849585,-4.4795885,-1957.9678)">
    <g
       id="active-center"
       transform="matrix(0.02211836,0,0,-0.02211825,2.3498265,1117.2686)">
      <path
         d="m 463.14987,7.858336 c 251.80053,0 455.92106,204.124594 455.92106,455.929394 0,251.7952 -204.12053,455.92107 -455.92106,455.92107 C 211.3504,919.7088 7.2250027,715.58293 7.2250027,463.78773 7.2250027,211.98293 211.3504,7.858336 463.14987,7.858336"
         style="opacity:0.5;fill:#538fff;fill-opacity:1;fill-rule:evenodd;stroke:none;stroke-width:1.06667"
         id="path14" />
      <path
         d="m 463.14987,46.637547 c 230.384,0 417.14986,186.762983 417.14986,417.150183 0,230.37867 -186.76586,417.14134 -417.14986,417.14134 C 232.76693,880.92907 46,694.1664 46,463.78773 46,233.40053 232.76693,46.637547 463.14987,46.637547"
         style="opacity:0.5;fill:#3c78ff;fill-opacity:1;fill-rule:evenodd;stroke:none;stroke-width:1.06667"
         id="path16" />
    </g>
  </g>
</svg>
