<?xml version="1.0" encoding="UTF-8" standalone="no"?>
<svg
   width="36"
   height="36"
   id="svg4428"
   version="1.1"
   xmlns="http://www.w3.org/2000/svg"
   xmlns:svg="http://www.w3.org/2000/svg">
  <g
     id="layer1"
     transform="matrix(1.7849587,0,0,1.7849586,-44.524466,-1957.9678)">
    <g
       id="hover-center"
       transform="matrix(0.02211825,0,0,-0.02211826,24.718465,1117.1973)">
      <path
         d="m 466.1376,4.637504 c 251.79627,0 455.92107,204.125166 455.92107,455.924626 0,251.80054 -204.1248,455.92534 -455.92107,455.92534 -251.80373,0 -455.929269,-204.1248 -455.929269,-455.92534 0,-251.79946 204.125539,-455.924626 455.929269,-455.924626"
         style="fill:#538fff;fill-opacity:1;fill-rule:evenodd;stroke:none;stroke-width:1.06667"
         id="path14-6" />
      <path
         d="m 466.1376,43.41248 c 230.38293,0 417.1456,186.76672 417.1456,417.14965 0,230.384 -186.76267,417.14667 -417.1456,417.14667 -230.3872,0 -417.15008,-186.76267 -417.15008,-417.14667 0,-230.38293 186.76288,-417.14965 417.15008,-417.14965"
         style="fill:#3c78ff;fill-opacity:1;fill-rule:evenodd;stroke:none;stroke-width:1.06667"
         id="path16-9" />
      <path
         d="m 342.79147,693.20853 h 285.01226 c 37.95094,0 69.0048,-31.05386 69.0048,-69.008 V 339.19147 Z M 590.60373,227.9168 H 304.4672 c -37.9552,0 -69.0048,31.0496 -69.0048,69.00373 v 286.1376 L 590.60373,227.9168"
         style="fill:#363a4f;fill-opacity:1;fill-rule:evenodd;stroke:none;stroke-width:1.06667"
         id="path18" />
    </g>
  </g>
</svg>
