<?xml version="1.0" encoding="UTF-8" standalone="no"?>
<svg
   id="svg12"
   version="1.1"
   height="36"
   width="36"
   xmlns="http://www.w3.org/2000/svg"
   xmlns:svg="http://www.w3.org/2000/svg">
  <defs
     id="defs1" />
  <g
     transform="matrix(1.7849586,0,0,1.7849585,-5.1410015,-1959.0772)"
     id="layer1">
    <g
       transform="matrix(0.02211836,0,0,-0.02211825,2.8148384,1117.8901)"
       id="active-center">
      <path
         id="path14"
         style="opacity:0.5;fill:#ff6889;fill-opacity:1;fill-rule:evenodd;stroke:none;stroke-width:1.06667"
         d="M 458.87893,7.858336 C 710.67947,7.858336 914.8,211.98293 914.8,463.78773 914.8,715.58293 710.67947,919.7088 458.87893,919.7088 207.07947,919.7088 2.9541653,715.58293 2.9541653,463.78773 2.9541653,211.98293 207.07947,7.858336 458.87893,7.858336" />
      <path
         id="path16"
         style="opacity:0.5;fill:#ff597d;fill-opacity:1;fill-rule:evenodd;stroke:none;stroke-width:1.06667"
         d="m 458.87893,46.637547 c 230.384,0 417.1456,186.762983 417.1456,417.150183 0,230.37867 -186.7616,417.14134 -417.1456,417.14134 -230.38293,0 -417.149757,-186.76267 -417.149757,-417.14134 0,-230.3872 186.766827,-417.150183 417.149757,-417.150183" />
    </g>
  </g>
</svg>
