<?xml version="1.0" encoding="UTF-8" standalone="no"?>
<svg
   version="1.1"
   id="svg4428"
   height="36"
   width="36"
   xmlns="http://www.w3.org/2000/svg"
   xmlns:svg="http://www.w3.org/2000/svg">
  <defs
     id="defs1" />
  <g
     transform="matrix(1.7849589,0,0,1.7849586,-45.715475,-1959.0772)"
     id="layer1">
    <g
       transform="matrix(0.02211825,0,0,-0.02211826,25.480173,1117.8188)"
       id="hover-center">
      <path
         id="path14-6"
         style="fill:#ff6889;fill-opacity:1;fill-rule:evenodd;stroke:none;stroke-width:1.06667"
         d="m 461.86667,4.637504 c 251.79626,0 455.92106,204.125166 455.92106,455.924626 0,251.80054 -204.1248,455.92534 -455.92106,455.92534 -251.80374,0 -455.929166,-204.1248 -455.929166,-455.92534 0,-251.79946 204.125426,-455.924626 455.929166,-455.924626" />
      <path
         id="path16-5"
         style="fill:#ff597d;fill-opacity:1;fill-rule:evenodd;stroke:none;stroke-width:1.06667"
         d="m 461.86667,43.41248 c 230.37866,0 417.14133,186.76672 417.14133,417.14965 0,230.384 -186.76267,417.14667 -417.14133,417.14667 -230.3872,0 -417.149977,-186.76267 -417.149977,-417.14667 0,-230.38293 186.762777,-417.14965 417.149977,-417.14965" />
      <path
         id="path18"
         style="fill:#363a4f;fill-opacity:1;fill-rule:evenodd;stroke:none;stroke-width:1.06667"
         d="m 246.82133,299.19147 376.41174,376.4128 c 14.56746,14.5664 38.4,14.5664 52.97493,0 l 0.69653,-0.704 c 14.57067,-14.5664 14.57067,-38.4 0.004,-52.97067 L 300.496,245.52107 c -14.57067,-14.57067 -38.40427,-14.57067 -52.97067,0 l -0.704,0.69546 c -14.56746,14.57067 -14.56746,38.40854 0,52.97494" />
      <path
         id="path20"
         style="fill:#363a4f;fill-opacity:1;fill-rule:evenodd;stroke:none;stroke-width:1.06667"
         d="m 300.496,675.60427 376.40853,-376.4128 c 14.5664,-14.5664 14.5664,-38.40427 0,-52.97067 l -0.7008,-0.69973 c -14.57066,-14.57067 -38.4032,-14.57067 -52.97066,0 L 246.82133,621.9296 c -14.57173,14.57067 -14.57173,38.40427 0,52.97493 l 0.69974,0.69974 c 14.57066,14.57066 38.40426,14.57066 52.97493,0" />
    </g>
  </g>
</svg>
