<?xml version="1.0" encoding="UTF-8" standalone="no"?>
<svg
   version="1.1"
   id="svg4428"
   height="36"
   width="36"
   xmlns="http://www.w3.org/2000/svg"
   xmlns:svg="http://www.w3.org/2000/svg">
  <g
     transform="matrix(1.7849591,0,0,1.7849585,-9.8066152,-1959.8217)"
     id="layer1">
    <g
       transform="translate(86.4,-3.2)"
       id="4" />
    <g
       transform="matrix(0.02211825,0,0,-0.02211825,5.3617794,1118.3072)"
       id="active-center">
      <path
         id="path14"
         style="opacity:0.5;fill:#1cd5df;fill-opacity:1;fill-rule:evenodd;stroke:none;stroke-width:1.06667"
         d="m 461.904,7.858336 c 251.80053,0 455.92533,204.124594 455.92533,455.929394 0,251.7952 -204.1248,455.92107 -455.92533,455.92107 C 210.10453,919.7088 5.979168,715.58293 5.979168,463.78773 5.979168,211.98293 210.10453,7.858336 461.904,7.858336" />
      <path
         id="path16"
         style="opacity:0.5;fill:#19c0ca;fill-opacity:1;fill-rule:evenodd;stroke:none;stroke-width:1.06667"
         d="m 461.904,46.637547 c 230.384,0 417.1456,186.762983 417.1456,417.150183 0,230.37867 -186.7616,417.14134 -417.1456,417.14134 -230.38293,0 -417.149867,-186.76267 -417.149867,-417.14134 0,-230.3872 186.766937,-417.150183 417.149867,-417.150183" />
    </g>
  </g>
</svg>
